<?xml version="1.0" encoding="UTF-8"?><svg id="Layer_1" xmlns="http://www.w3.org/2000/svg" xmlns:xlink="http://www.w3.org/1999/xlink" viewBox="0 0 521.99 265.32"><defs><style>.cls-1{fill:url(#linear-gradient-2);}.cls-2{fill:url(#linear-gradient-3);}.cls-3{fill:url(#linear-gradient);}.cls-4{fill:#060630;}</style><linearGradient id="linear-gradient" x1="49.73" y1="186.19" x2="154.52" y2="74.03" gradientUnits="userSpaceOnUse"><stop offset="0" stop-color="#a354f1"/><stop offset="1" stop-color="#2746e7"/></linearGradient><linearGradient id="linear-gradient-2" x1="56.58" y1="192.58" x2="161.36" y2="80.42" xlink:href="#linear-gradient"/><linearGradient id="linear-gradient-3" x1="40.64" y1="177.69" x2="145.42" y2="65.53" xlink:href="#linear-gradient"/></defs><g><path class="cls-3" d="M167.14,72.31c-2.75-3.64-8.25-2.3-11.65-1.25l-64.76,23.5c-3.88,1.36-12.4,4.5-13.03,4.78-8.49,3.8-6.92,8.19,.78,9.14,5.41,.66,3.56,.25,10.46,1.08l17.36,2.08c.5,.06,.98,.12,1.44,.19l1.78,.29c10.66,1.72,12.79,4.23,12.83,15.17l.06,17.48c.02,6.95-.17,5.06-.14,10.51,.05,7.76,4.23,9.83,8.99,1.84,4.11-6.91,35.11-73.3,35.11-73.3,1.31-3.12,3.27-8.2,.79-11.5Z"/><path class="cls-1" d="M56.39,195.4c1.2-.7,2.68-1.25,3.76-2.24,14.5-13.31,28.98-26.66,43.38-40.08,2.51-2.34,3.23-5.28,.33-7.85-2.73-2.42-5.53-1.69-8.05,.65-3.88,3.6-7.77,7.21-11.65,10.81-10.17,9.45-20.33,18.91-30.52,28.33-2.19,2.03-3.61,4.18-2.26,7.29,.93,2.14,2.79,2.67,5.01,3.09Z"/><path class="cls-2" d="M84.1,125.5c-6.83,6.29-13.65,12.6-20.39,18.98-1.59,1.51-1.99,3.34-.64,5.43,1.05,1.62,2.49,2.38,4.36,2.9,.6-.2,1.43-.28,1.98-.71,7.93-6.18,15.53-12.75,22.05-20.45,1.91-2.25,.35-4.28-1.32-5.91-1.86-1.81-4.01-2.13-6.04-.25Z"/></g><g><g><path id="Path_2730" class="cls-4" d="M399.08,103.76l.02,62.62c.04,1.19-.82,2.06-2.01,2.04h-15.55c-1.21,0-1.88-.81-2.01-2.03l-.54-7.21c-3.99,6.53-10.91,10.54-19.02,11.03-14.6,0-24.1-10.88-24.1-28.71v-37.7c-.04-1.19,.82-2.06,2-2.04h15.11c.84-.1,1.72,.53,1.96,1.41,.06,.21,.07,.42,.05,.63v33.62c0,10.75,6.44,13.72,11.53,13.72,6.99,.03,12.18-4.91,12.46-11.85v-35.53c-.04-1.19,.82-2.06,2-2.04h16.08c.84-.1,1.72,.53,1.96,1.41,.06,.21,.07,.42,.05,.63"/><path id="Path_2731" class="cls-4" d="M253.84,103.55h15.12c.84-.1,1.72,.53,1.96,1.41,.06,.21,.07,.42,.05,.63l.02,62.62c.04,1.19-.83,2.06-2.01,2.04h-15.12c-.84,.1-1.72-.53-1.96-1.41-.06-.21-.07-.42-.05-.63l-.02-62.62c-.04-1.19,.83-2.06,2.01-2.04"/><path id="Path_2732" class="cls-4" d="M232.29,146.17c1.07-.95,2.01-.95,2.95,0l9.65,9.39c.83,.86,.92,2.11,.19,2.81-.02,.02-.04,.04-.06,.05-6.14,7.42-15.35,11.67-25.72,11.85-18.89,0-33.63-15.37-33.64-34.97,.06-19.7,14.07-34.27,33.63-35,9.18-.27,18.68,4.17,25.32,11.83,.77,.97,.71,2.24-.13,2.86l-9.65,9.53c-.54,.79-1.71,.87-2.61,.18-.12-.09-.24-.2-.34-.32-3.36-3.31-7.77-5.2-12.06-5.16-8.88,.32-15.13,7.09-14.87,16.07,0,9.12,6.17,16.06,14.88,16.06,4.87-.16,9.25-1.99,12.46-5.18"/><path id="Path_2737" class="cls-4" d="M471.13,130.67v37.43c.04,1.19-.82,2.06-2.01,2.04h-16.08c-.84,.1-1.72-.53-1.96-1.41-.06-.21-.07-.42-.05-.63v-33.35c0-10.76-5.89-13.88-11.26-13.88-6.91,.51-12,5.41-12.74,12.26v34.99c.04,1.19-.82,2.06-2.01,2.04h-16.06c-.85,.09-1.72-.54-1.96-1.42-.06-.21-.07-.42-.05-.61l-.02-62.62c-.04-1.19,.83-2.06,2.01-2.04h15.54c1.21,0,1.88,.81,2.01,2.03l.56,8.44c3.9-7.33,11.39-11.77,20.23-11.99,13.27,0,23.85,10.88,23.85,28.71"/><path id="Path_2739" class="cls-4" d="M328.76,108.41l-4.42,11.71c-.35,1.42-1.84,2.08-3.34,1.5-1.81-.69-3.67-1.06-5.5-1.09-8.04,.14-13.7,6.3-13.27,14.44v33.22c.04,1.19-.82,2.06-2,2.04h-16.08c-.85,.09-1.72-.54-1.96-1.42-.06-.21-.07-.42-.05-.61l-.02-62.62c-.04-1.19,.82-2.06,2.01-2.04h15.41c1.2,0,1.88,.81,2.01,2.03l.54,7.78c2.84-6.74,9.19-10.99,16.88-11.31,3.16-.1,6.46,1.13,9.11,3.4,.92,.82,1.21,2.1,.67,3"/></g><circle class="cls-4" cx="261.94" cy="85.84" r="9.76"/></g></svg>