<?xml version="1.0" standalone="no"?>
<!DOCTYPE svg PUBLIC "-//W3C//DTD SVG 20010904//EN"
 "http://www.w3.org/TR/2001/REC-SVG-20010904/DTD/svg10.dtd">
<svg version="1.0" xmlns="http://www.w3.org/2000/svg"
 width="400.000000pt" height="400.000000pt" viewBox="0 0 400.000000 400.000000"
 preserveAspectRatio="xMidYMid meet">
<metadata>
Created by potrace 1.16, written by Peter Selinger 2001-2019
</metadata>
<g transform="translate(0.000000,400.000000) scale(0.100000,-0.100000)"
fill="#000000" stroke="none">
<path d="M1770 3794 c-360 -52 -681 -200 -955 -441 -165 -146 -329 -362 -417
-553 -27 -58 -52 -112 -57 -120 -20 -36 -74 -224 -98 -340 -23 -113 -26 -147
-26 -345 0 -199 3 -232 27 -348 84 -406 284 -751 589 -1018 251 -219 524 -351
868 -420 154 -31 482 -33 629 -5 435 84 787 284 1060 601 113 132 187 246 259
396 75 157 103 236 134 379 159 713 -101 1434 -673 1870 -240 183 -528 301
-840 345 -129 18 -372 18 -500 -1z m890 -1047 c11 -6 25 -27 31 -45 15 -47 0
-107 -64 -242 -30 -63 -103 -218 -162 -345 -307 -657 -367 -765 -426 -765 -43
0 -49 41 -49 327 -1 147 -5 287 -9 311 -11 54 -41 87 -100 107 -45 14 -236 41
-471 66 -160 17 -210 44 -181 97 21 40 20 39 596 247 193 69 393 142 445 162
274 103 334 115 390 80z m-1152 -838 c18 -18 32 -42 32 -55 0 -31 -118 -156
-254 -271 -78 -65 -107 -83 -130 -83 -36 0 -46 6 -69 40 -35 51 -30 57 235
301 72 67 115 99 131 99 13 0 38 -14 55 -31z m206 -290 c20 -16 26 -29 26 -58
0 -41 -23 -66 -230 -257 -41 -38 -111 -103 -155 -144 -343 -320 -351 -327
-397 -311 -41 14 -57 38 -58 82 0 43 -1 41 185 214 71 66 164 152 205 190 244
227 304 281 323 292 33 18 71 15 101 -8z"/>
</g>
</svg>
